# xmcd
#
# Track frame offsets:
#	150
#	16933
#	36835
#	62375
#	83043
#	107701
#	122148
#	141822
#	159147
#	177587
#	193071
#	206943
#
# Disc length: 3326 seconds
#
# Revision: 2
# Processed by: cddbd v1.4PL0 Copyright (c) Steve Scherf et al.
# Submitted via: CDmax 1.9
#
DISCID=a00cfc0c
DTITLE=The Twangbangers - 26 Days On The Road
DYEAR=2002
DGENRE=Country
TTITLE0=Truck Drivin' Man
TTITLE1=I Got A Rocket In My Pocket
TTITLE2=The Stuff Inside
TTITLE3=Wacky Walk
TTITLE4=She Loves Anything That Swings
TTITLE5=How Mountain Girls Can Love
TTITLE6=Rockabilly Funeral
TTITLE7=In Memory Of A Memory
TTITLE8=Rock Bottom
TTITLE9=Telewacker
TTITLE10=I Gotta Get Drunk
TTITLE11=Hot Rod Lincoln
EXTD=Hightone Records
EXTT0=
EXTT1=
EXTT2=
EXTT3=
EXTT4=
EXTT5=
EXTT6=
EXTT7=
EXTT8=
EXTT9=
EXTT10=
EXTT11=
PLAYORDER=
